<svg width="95" height="55" viewBox="0 0 95 55" fill="none" xmlns="http://www.w3.org/2000/svg">
<path d="M8.01422 15.7034C12.1863 15.7034 15.5685 12.3212 15.5685 8.14914C15.5685 3.97704 12.1863 0.594879 8.01422 0.594879C3.84212 0.594879 0.459961 3.97704 0.459961 8.14914C0.459961 12.3212 3.84212 15.7034 8.01422 15.7034Z" fill="white"/>
<path d="M8.01437 18.6483C12.4602 18.6483 14.8149 21.3565 14.8149 25.2921V47.5913C14.8149 51.5269 12.4602 54.2351 8.01437 54.2351C3.55519 54.2351 1.21387 51.5269 1.21387 47.5913V25.2921C1.2172 21.3565 3.55519 18.6483 8.01437 18.6483Z" fill="white"/>
<path d="M43.101 28.1438L48.6474 22.584L36.2104 10.1136C33.172 7.0686 28.2426 7.06193 25.1942 10.1003C22.1492 13.1387 22.1425 18.0681 25.1809 21.1165L42.5573 38.5397C40.0826 35.4813 40.2627 30.9888 43.101 28.1438Z" fill="#4265FF"/>
<path d="M72.0968 10.1003C69.0517 7.06193 64.119 7.0686 61.0806 10.1136L48.6436 22.584L54.19 28.1438C57.0283 30.9888 57.2084 35.4813 54.7337 38.5364L72.1101 21.1132C75.1485 18.0681 75.1418 13.1387 72.0968 10.1003Z" fill="#28C2A5"/>
<path d="M54.1902 28.1438L48.6437 22.584L43.1006 28.1438C40.2623 30.9888 40.0822 35.4813 42.5569 38.5363L43.164 39.1434C44.6781 40.6609 46.6626 41.4213 48.647 41.4313C50.6348 41.4246 52.616 40.6609 54.1301 39.1434L54.7372 38.5363C57.2085 35.4813 57.0284 30.9888 54.1902 28.1438Z" fill="#0D4AAC"/>
<path d="M63.656 32.4963C62.3987 33.7503 60.2041 36.145 60.2041 41.2479C60.2041 45.0434 60.2041 46.8444 60.2041 46.8444C60.2041 50.6832 63.3892 54.2352 67.2281 54.2352H67.2814C71.1203 54.2352 74.3854 50.6832 74.3854 46.8444V21.9303C74.3854 21.9303 64.9134 31.2422 63.656 32.4963Z" fill="white"/>
<path d="M33.6356 32.4963C34.893 33.7503 37.0876 36.145 37.0876 41.2479C37.0876 45.0434 37.0876 46.8444 37.0876 46.8444C37.0876 50.6832 34.0125 54.2352 30.177 54.2352H30.1237C26.2848 54.2352 22.9062 50.6832 22.9062 46.8444V21.9303C22.9062 21.9303 32.3783 31.2422 33.6356 32.4963Z" fill="white"/>
<path d="M93.1493 53.4613H84.3276C83.3037 53.4613 82.4766 52.6309 82.4766 51.6103V21.2765C82.4766 20.2526 83.307 19.4255 84.3276 19.4255H93.1493C94.1732 19.4255 95.0003 20.2559 95.0003 21.2765V51.6103C95.0003 52.6309 94.1732 53.4613 93.1493 53.4613Z" fill="white"/>
<path d="M93.0525 14.4126H84.4243C83.3471 14.4126 82.4766 13.5388 82.4766 12.4649V3.83668C82.4766 2.75941 83.3504 1.88892 84.4243 1.88892H93.0525C94.1298 1.88892 95.0003 2.76274 95.0003 3.83668V12.4649C95.0003 13.5388 94.1298 14.4126 93.0525 14.4126Z" fill="white"/>
</svg>
